<svg id="Layer_1" enable-background="new 0 0 511.841 511.841" height="512" viewBox="0 0 511.841 511.841" width="512" xmlns="http://www.w3.org/2000/svg"><g><path d="m295.304 296.772c0-55.125-44.847-99.972-99.972-99.972s-99.972 44.847-99.972 99.972 44.847 99.972 99.972 99.972 99.972-44.847 99.972-99.972zm-184.944 0c0-46.854 38.118-84.972 84.972-84.972s84.972 38.118 84.972 84.972-38.118 84.972-84.972 84.972-84.972-38.119-84.972-84.972z"/><path d="m175.26 327.453 29.101-29.102 5.52 36.504c1.423 9.399 16.296 7.44 14.832-2.242l-7.174-47.44 21.79-21.791c6.856-6.859-3.748-17.462-10.607-10.607l-21.791 21.791-47.44-7.174c-9.585-1.471-11.831 13.38-2.242 14.832l36.504 5.52-29.101 29.101-16.607-2.512c-9.584-1.467-11.831 13.38-2.242 14.832l14.886 2.251 2.25 14.886c1.423 9.399 16.296 7.44 14.832-2.242z"/><path d="m504.341 336.493h-22.434c4.27-5.92 6.796-13.178 6.796-21.019 0-19.861-16.158-36.02-36.019-36.02-22.614 0-37.277 17.168-45.679 36.405-7.012-16.056-18.093-31.373-36.181-35.38v-158.221c0-4.143-3.357-7.5-7.5-7.5h-98.344v-46.824c0-89.777-139.296-89.788-139.296 0v46.824h-26.843c-9.697 0-9.697 15 0 15h26.844v40.165c0 9.697 15 9.697 15 0v-40.165h109.295v40.165c0 9.697 15 9.697 15 0v-40.165h90.844v150.116c-17.259 2.657-30.518 17.609-30.518 35.6 0 7.841 2.526 15.098 6.796 21.019h-22.432c-4.143 0-7.5 3.357-7.5 7.5v89.755h-267.329v-303.99h20c9.697 0 9.697-15 0-15h-27.5c-4.143 0-7.5 3.357-7.5 7.5v317.818l-19.644 61.381c-.933 5.682 1.448 8.944 7.144 9.786h497c4.143 0 7.5-3.357 7.5-7.5v-159.75c0-4.143-3.358-7.5-7.5-7.5zm-363.657-221.735v-46.824c0-70.297 109.296-70.504 109.296 0v46.824zm312 179.697c11.59 0 21.019 9.43 21.019 21.02s-9.429 21.019-21.019 21.019h-16.67-19.938c3.415-14.36 13.056-42.039 36.608-42.039zm-112.377 21.019c0-11.59 9.43-21.02 21.02-21.02 12.761 0 22.984 8.033 30.386 23.877 3.052 6.531 5.012 13.157 6.21 18.161h-19.926-16.67c-11.591.001-21.02-9.428-21.02-21.018zm-307.491 133.273h269.354v47.496h-284.555zm284.354-97.254h44.156 9.17v144.751h-53.326zm179.671 144.751h-53.326v-40.257c0-9.697-15-9.697-15 0v40.257h-43.019v-144.751h43.019v69.591c0 9.697 15 9.697 15 0v-69.591h53.326z"/></g></svg>