<svg height="512pt" viewBox="0 0 512.00081 512" width="512pt" xmlns="http://www.w3.org/2000/svg"><path d="m110.472656 197.382812c1.859375-1.859374 2.917969-4.441406 2.917969-7.082031 0-2.628906-1.058594-5.210937-2.917969-7.066406-1.863281-1.863281-4.441406-2.921875-7.070312-2.921875-2.640625 0-5.222656 1.058594-7.082032 2.921875-1.859374 1.867187-2.917968 4.4375-2.917968 7.066406 0 2.640625 1.058594 5.210938 2.917968 7.082031 1.871094 1.859376 4.441407 2.929688 7.082032 2.929688 2.628906 0 5.199218-1.070312 7.070312-2.929688zm0 0"/><path d="m53.804688 444.046875-50.875 50.875c-3.90625 3.902344-3.90625 10.234375 0 14.140625 1.953124 1.953125 4.511718 2.929688 7.070312 2.929688s5.117188-.976563 7.070312-2.929688l50.875-50.875c3.90625-3.902344 3.90625-10.234375 0-14.140625s-10.234374-3.90625-14.140624 0zm0 0"/><path d="m10 297.992188c2.5625 0 5.117188-.976563 7.070312-2.929688l55.90625-55.902344c3.902344-3.90625 3.902344-10.238281 0-14.144531-3.90625-3.902344-10.238281-3.902344-14.144531 0l-55.902343 55.902344c-3.90625 3.90625-3.90625 10.238281 0 14.144531 1.953124 1.953125 4.511718 2.929688 7.070312 2.929688zm0 0"/><path d="m249.058594 470.460938-24.460938 24.460937c-3.90625 3.902344-3.90625 10.234375 0 14.140625 1.953125 1.953125 4.511719 2.929688 7.070313 2.929688 2.558593 0 5.117187-.976563 7.070312-2.929688l24.460938-24.457031c3.90625-3.90625 3.90625-10.238281 0-14.144531s-10.238281-3.90625-14.140625 0zm0 0"/><path d="m507.109375 271.558594-110.625-65.730469 74.925781-74.921875c31.582032-31.585938 46.050782-76.746094 38.699219-120.804688-.703125-4.214843-4.003906-7.519531-8.21875-8.21875-44.058594-7.355468-89.21875 7.113282-120.808594 38.699219l-70.765625 70.769531-32.121094-3.0625c3.351563-10.59375.84375-22.65625-7.539062-31.035156-11.976562-11.976562-31.46875-11.976562-43.445312 0l-23.890626 23.890625-31.691406-3.023437c1.015625-3.070313 1.550782-6.316406 1.550782-9.644532 0-8.207031-3.195313-15.921874-8.996094-21.722656-5.804688-5.804687-13.519532-9-21.722656-9-8.207032 0-15.921876 3.195313-21.722657 9l-24.207031 24.207032-40.992188-3.910157c-2.960937-.277343-5.910156.773438-8.019531 2.886719l-44.589843 44.589844c-2.25 2.25-3.296876 5.4375-2.8125 8.585937.480468 3.148438 2.433593 5.878907 5.257812 7.351563l57.894531 30.191406c1.476563.773438 3.054688 1.136719 4.613281 1.136719 3.605469 0 7.09375-1.957031 8.875-5.378907 2.554688-4.894531.65625-10.933593-4.242187-13.488281l-45.808594-23.894531 31.621094-31.621094 233.644531 22.285156-97.066406 97.066407-51.214844-26.714844c-4.898437-2.554687-10.9375-.652344-13.492187 4.242187-2.554688 4.898438-.65625 10.9375 4.242187 13.492188l45.640625 23.804688-15.707031 15.703124c-15.636719 15.640626-29.332031 32.757813-40.964844 51.074219l-86.972656 1.601563c-2.589844.050781-5.058594 1.097656-6.886719 2.929687l-23.246093 23.246094c-2.445313 2.445313-3.453126 5.980469-2.664063 9.351563.789063 3.367187 3.261719 6.089843 6.539063 7.195312l80.308593 27.078125c-3.957031 12.859375-7.058593 26.054687-9.277343 39.523437-.523438 3.179688.519531 6.417969 2.796874 8.695313 1.890626 1.890625 4.441407 2.929687 7.070313 2.929687.539063 0 1.082031-.042968 1.625-.132812 13.46875-2.21875 26.664063-5.320312 39.523437-9.277344l27.082032 80.308594c1.101562 3.277344 3.824218 5.753906 7.191406 6.542969.757812.175781 1.523438.261719 2.28125.261719 2.621094 0 5.175781-1.03125 7.070312-2.929688l23.25-23.246094c1.832032-1.832031 2.878907-4.304687 2.925782-6.894531l1.515625-86.910156c15.566406-9.878907 30.265625-21.253907 43.933593-34.046875 8.628907 72.199218 58.074219 133.664062 128.453126 156.898437 1.019531.335938 2.078124.503907 3.136718.503907s2.117188-.167969 3.132813-.503907c77.636719-25.632812 129.800781-97.785156 129.800781-179.542969v-51.789062c0-3.53125-1.859375-6.796875-4.890625-8.597656zm-265.753906-180.160156c4.179687-4.183594 10.980469-4.183594 15.160156 0 4.078125 4.078124 4.164063 10.652343.273437 14.847656l-27.648437-2.636719zm-106.472657-10.5c2.023438-2.027344 4.714844-3.140626 7.578126-3.140626 2.863281 0 5.554687 1.113282 7.578124 3.140626 2.023438 2.023437 3.140626 4.714843 3.140626 7.578124 0 2.863282-1.113282 5.554688-3.140626 7.582032l-.007812.003906-27.675781-2.640625zm-103.039062 257.984374 8.996094-8.996093 70.832031-1.304688c-5.523437 10.445313-10.414063 21.21875-14.652344 32.28125zm150.257812 132.273438-8.996093 8.992188-21.976563-65.175782c11.035156-4.226562 21.785156-9.105468 32.207032-14.613281zm6.828126-96.980469c-.300782.160157-.589844.335938-.871094.527344-25.941406 15.726563-54.351563 27.089844-84.398438 33.628906 11.3125-51.964843 37.011719-99.050781 74.859375-136.898437l216.707031-216.707032c25.300782-25.300781 60.777344-37.761718 96.136719-34.09375 3.667969 35.355469-8.796875 70.832032-34.097656 96.132813l-80.664063 80.664063c-.917968.234374-1.808593.589843-2.644531 1.085937l-122.9375 73.042969c-3.03125 1.800781-4.894531 5.066406-4.894531 8.597656v47.746094l-5.566406 5.570312c-15.71875 15.71875-33.035156 29.335938-51.628906 40.703125zm303.070312-42.230469c0 72.003907-45.246094 135.675782-112.9375 159.480469-67.398438-23.703125-112.539062-86.929687-112.925781-158.554687.054687-.621094.054687-1.25-.007813-1.871094v-45.15625l112.9375-67.101562 112.933594 67.101562zm0 0"/><path d="m373.957031 245.042969-82.9375 49.277343c-3.03125 1.800782-4.894531 5.066407-4.894531 8.597657v29.027343c0 59.097657 34.902344 112.640626 88.910156 136.402344 1.285156.5625 2.65625.847656 4.027344.847656s2.746094-.285156 4.027344-.847656c54.011718-23.761718 88.910156-77.304687 88.910156-136.402344v-29.027343c0-3.527344-1.859375-6.796875-4.890625-8.597657l-82.9375-49.277343c-3.148437-1.871094-7.066406-1.871094-10.214844 0zm78.042969 63.5625v23.339843c0 49.6875-28.480469 94.832032-72.9375 116.242188-44.453125-21.410156-72.9375-66.554688-72.9375-116.242188v-23.339843l72.9375-43.335938zm0 0"/><path d="m366.738281 349.34375c-3.90625-3.902344-10.234375-3.902344-14.140625 0-3.90625 3.90625-3.90625 10.238281 0 14.144531l16.285156 16.285157c1.953126 1.953124 4.511719 2.929687 7.070313 2.929687 2.5625 0 5.121094-.976563 7.074219-2.929687l39.625-39.625c3.90625-3.90625 3.90625-10.238282 0-14.144532-3.90625-3.902344-10.234375-3.902344-14.140625 0l-32.558594 32.558594zm0 0"/><path d="m347.117188 174.875c2.5625 0 5.121093-.976562 7.074218-2.929688l91.246094-91.25c3.90625-3.90625 3.90625-10.238281 0-14.140624-3.90625-3.90625-10.234375-3.90625-14.140625 0l-91.25 91.246093c-3.90625 3.90625-3.90625 10.238281 0 14.144531 1.953125 1.953126 4.511719 2.929688 7.070313 2.929688zm0 0"/><path d="m318.832031 203.160156c2.628907 0 5.207031-1.070312 7.078125-2.929687 1.859375-1.867188 2.929688-4.4375 2.929688-7.070313 0-2.636718-1.070313-5.207031-2.929688-7.070312-1.871094-1.867188-4.4375-2.929688-7.078125-2.929688-2.632812 0-5.210937 1.0625-7.070312 2.929688-1.859375 1.851562-2.929688 4.433594-2.929688 7.070312 0 2.632813 1.066407 5.210938 2.929688 7.070313 1.867187 1.859375 4.4375 2.929687 7.070312 2.929687zm0 0"/></svg>