<svg id="Layer_1" enable-background="new 0 0 239.333 239.333" height="239.333" viewBox="0 0 239.333 239.333" width="239.333" xmlns="http://www.w3.org/2000/svg"><g fill="none" stroke="#58595b" stroke-miterlimit="10" stroke-width="4.681"><g><path d="m36.088 55.835 7.793-1.136 3.635-7.16 3.592 7.152 7.794 1.123-5.666 5.662 1.324 7.75-6.941-3.64-7.15 3.667 1.275-7.925z"/><path d="m36.088 90.305 7.793-1.136 3.635-7.16 3.592 7.152 7.794 1.123-5.666 5.662 1.324 7.749-6.941-3.639-7.15 3.667 1.275-7.925z"/><path d="m36.088 128.638 7.793-1.136 3.635-7.16 3.592 7.151 7.794 1.124-5.666 5.662 1.324 7.749-6.941-3.64-7.15 3.667 1.275-7.924z"/></g><g><path d="m215.067 221.289c0 6.031-4.889 10.921-10.921 10.921h-121.315c-6.031 0-10.921-4.889-10.921-10.921v-203.244c0-6.031 4.889-10.921 10.921-10.921h121.316c6.031 0 10.921 4.889 10.921 10.921v203.244z"/><path d="m126.901 52.706c0 3.181-2.579 5.761-5.761 5.761h-17.658c-3.181 0-5.761-2.579-5.761-5.761v-17.658c0-3.181 2.579-5.761 5.761-5.761h17.658c3.181 0 5.761 2.579 5.761 5.761z"/><path d="m188.712 48.932c0 3.248-2.633 5.882-5.882 5.882h-18.029c-3.248 0-5.882-2.633-5.882-5.882v-18.029c0-3.248 2.633-5.882 5.882-5.882h18.029c3.248 0 5.882 2.633 5.882 5.882z"/><path d="m126.901 98.807c0 3.181-2.579 5.761-5.761 5.761h-17.658c-3.181 0-5.761-2.579-5.761-5.761v-17.658c0-3.181 2.579-5.761 5.761-5.761h17.658c3.181 0 5.761 2.579 5.761 5.761z"/><path d="m186.307 98.807c0 3.181-2.579 5.761-5.761 5.761h-17.658c-3.181 0-5.761-2.579-5.761-5.761v-17.658c0-3.181 2.579-5.761 5.761-5.761h17.658c3.181 0 5.761 2.579 5.761 5.761z"/><path d="m126.901 145.453c0 3.181-2.579 5.761-5.761 5.761h-17.658c-3.181 0-5.761-2.579-5.761-5.761v-17.658c0-3.181 2.579-5.761 5.761-5.761h17.658c3.181 0 5.761 2.579 5.761 5.761z"/><path d="m186.307 145.453c0 3.181-2.579 5.761-5.761 5.761h-17.658c-3.181 0-5.761-2.579-5.761-5.761v-17.658c0-3.181 2.579-5.761 5.761-5.761h17.658c3.181 0 5.761 2.579 5.761 5.761z"/><path d="m170.816 232.209c.021-.317.048-.633.048-.956v-44.986c0-8.105-6.571-14.676-14.676-14.676h-16.412-11.936c-8.105 0-14.676 6.571-14.676 14.676v44.986c0 .323.028.638.048.956z"/></g><path d="m71.91 32.176h-47.643v121.179s26.828 1.049 36.08 15.638c3.32 5.236 7.494 7.563 11.564 7.965v-144.782z"/></g></svg>